# xmcd CD database file
#
# Track frame offsets:
#	150
#	18312
#	37670
#	52265
#	66692
#	81727
#	96325
#	109012
#	122445
#	134465
#	152390
#	162930
#	179952
#	200245
#
# Disc length: 2874 seconds
#
# Revision: 0
# Processed by: cddbd v1.5.2PL0 Copyright (c) Steve Scherf et al.
# Submitted via: CDex 1.51
#
DISCID=ce0b380e
DTITLE=Paul Smith - Taking A Chance On Love
DYEAR=1900
DGENRE=Jazz
TTITLE0=Taking A Chance On Love
TTITLE1=Softly
TTITLE2=I'll Remember April
TTITLE3=Invitation
TTITLE4=Cupid Took Me For A Ride
TTITLE5=The Way You Look Tonight
TTITLE6=By The Fireside
TTITLE7=Over The Rainbow
TTITLE8=S'Wonderful
TTITLE9=Easy To Love
TTITLE10=I Got Rhythm
TTITLE11=I Didn't Know What Time It was
TTITLE12=The Man I Love
TTITLE13=Blues A La P.T.
EXTD=
EXTT0=
EXTT1=
EXTT2=
EXTT3=
EXTT4=
EXTT5=
EXTT6=
EXTT7=
EXTT8=
EXTT9=
EXTT10=
EXTT11=
EXTT12=
EXTT13=
PLAYORDER=
